<svg width="100" height="100" viewBox="0 0 100 100" fill="none" xmlns="http://www.w3.org/2000/svg">
<path d="M97.9164 95.8332H2.08339C0.933397 95.8332 0 96.7664 0 97.9164C0 99.0664 0.933397 99.9998 2.08339 99.9998H97.9166C99.0666 99.9998 100 99.0664 100 97.9164C99.9998 96.7664 99.0664 95.8332 97.9164 95.8332Z" fill="#EA7E00"/>
<path d="M18.75 70.8333H6.24999C5.09999 70.8333 4.16659 71.7667 4.16659 72.9167V97.9166C4.16659 99.0664 5.09999 99.9998 6.24999 99.9998H18.75C19.9 99.9998 20.8334 99.0664 20.8334 97.9164V72.9165C20.8334 71.7665 19.9 70.8333 18.75 70.8333ZM16.6666 95.8332H8.33338V74.9999H16.6668L16.6666 95.8332Z" fill="#EA7E00"/>
<path d="M43.7499 49.9999H31.2499C30.0999 49.9999 29.1665 50.9333 29.1665 52.0833V97.9166C29.1665 99.0666 30.0999 100 31.2499 100H43.7499C44.8999 100 45.8333 99.0666 45.8333 97.9166V52.0833C45.8333 50.9333 44.8999 49.9999 43.7499 49.9999ZM41.6665 95.8332H33.3331V54.1665H41.6665V95.8332Z" fill="#EA7E00"/>
<path d="M68.7499 58.3333H56.2499C55.0999 58.3333 54.1665 59.2667 54.1665 60.4167V97.9166C54.1665 99.0666 55.0999 100 56.2499 100H68.7499C69.8999 100 70.8333 99.0666 70.8333 97.9166V60.4167C70.8333 59.2665 69.8999 58.3333 68.7499 58.3333ZM66.6665 95.8332H58.3331V62.4999H66.6665V95.8332Z" fill="#EA7E00"/>
<path d="M93.7498 33.3333H81.2498C80.0998 33.3333 79.1665 34.2667 79.1665 35.4167V97.9166C79.1665 99.0666 80.0998 100 81.2498 100H93.7498C94.8998 100 95.8332 99.0666 95.8332 97.9166V35.4167C95.8332 34.2665 94.8998 33.3333 93.7498 33.3333ZM91.6664 95.8332H83.333V37.4999H91.6664V95.8332Z" fill="#EA7E00"/>
<path d="M12.5 37.4999C7.90409 37.4999 4.16659 41.2374 4.16659 45.8333C4.16659 50.4292 7.90409 54.1667 12.5 54.1667C17.0959 54.1667 20.8334 50.4292 20.8334 45.8333C20.8334 41.2374 17.0959 37.4999 12.5 37.4999ZM12.5 49.9999C10.2 49.9999 8.33338 48.129 8.33338 45.8333C8.33338 43.5374 10.2 41.6667 12.5 41.6667C14.8 41.6667 16.6666 43.5376 16.6666 45.8333C16.6666 48.129 14.8 49.9999 12.5 49.9999Z" fill="#EA7E00"/>
<path d="M37.4999 16.6666C32.904 16.6666 29.1665 20.4041 29.1665 25C29.1665 29.5958 32.904 33.3333 37.4999 33.3333C42.0958 33.3333 45.8333 29.5958 45.8333 25C45.8333 20.4041 42.0958 16.6666 37.4999 16.6666ZM37.4999 29.1665C35.1999 29.1665 33.3333 27.2957 33.3333 25C33.3333 22.7041 35.1999 20.8334 37.4999 20.8334C39.7999 20.8334 41.6665 22.7043 41.6665 25C41.6665 27.2958 39.7999 29.1665 37.4999 29.1665Z" fill="#EA7E00"/>
<path d="M62.4999 25C57.904 25 54.1665 28.7374 54.1665 33.3333C54.1665 37.9292 57.904 41.6667 62.4999 41.6667C67.0958 41.6667 70.8333 37.9292 70.8333 33.3333C70.8333 28.7374 67.0958 25 62.4999 25ZM62.4999 37.4999C60.1999 37.4999 58.3333 35.629 58.3333 33.3333C58.3333 31.0374 60.1999 29.1667 62.4999 29.1667C64.7999 29.1667 66.6665 31.0376 66.6665 33.3333C66.6665 35.629 64.7999 37.4999 62.4999 37.4999Z" fill="#EA7E00"/>
<path d="M87.4998 0C82.9039 0 79.1665 3.73749 79.1665 8.33338C79.1665 12.9293 82.9039 16.6668 87.4998 16.6668C92.0957 16.6668 95.8332 12.9293 95.8332 8.33338C95.8332 3.73749 92.0957 0 87.4998 0ZM87.4998 12.5C85.1998 12.5 83.3332 10.6291 83.3332 8.33338C83.3332 6.03749 85.1998 4.16679 87.4998 4.16679C89.7998 4.16679 91.6664 6.03768 91.6664 8.33338C91.6664 10.6291 89.7998 12.5 87.4998 12.5Z" fill="#EA7E00"/>
<path d="M84.5582 11.275C83.7457 10.4625 82.4248 10.4625 81.6123 11.275L65.4458 27.4416C64.6333 28.254 64.6333 29.5749 65.4458 30.3874C65.8542 30.7915 66.3874 30.9958 66.9208 30.9958C67.4499 30.9958 67.9833 30.7958 68.3917 30.3874L84.5582 14.2209C85.3707 13.4084 85.3707 12.0875 84.5582 11.275Z" fill="#EA7E00"/>
<path d="M57.4624 28.5249L44.079 24.7084C42.9581 24.3834 41.8206 25.0333 41.5081 26.1417C41.1915 27.2501 41.8331 28.4001 42.9372 28.7167L56.3206 32.5333C56.5122 32.5874 56.704 32.6124 56.8915 32.6124C57.7999 32.6124 58.6331 32.0165 58.8956 31.0999C59.2124 29.9958 58.5708 28.8415 57.4624 28.5249Z" fill="#EA7E00"/>
<path d="M34.2499 27.5958C33.5333 26.6958 32.2249 26.5499 31.3249 27.2624L15.6166 39.7874C14.7166 40.5083 14.5666 41.8165 15.2875 42.7165C15.7 43.2331 16.3084 43.4999 16.9166 43.4999C17.3707 43.4999 17.8291 43.3499 18.2125 43.0499L33.9208 30.5249C34.8208 29.804 34.9708 28.4958 34.2499 27.5958Z" fill="#EA7E00"/>
</svg>
