<svg width="100" height="100" viewBox="0 0 100 100" fill="none" xmlns="http://www.w3.org/2000/svg">
<path d="M93.3334 20C89.6566 20 86.6668 22.99 86.6668 26.6666C86.6668 30.3432 89.6568 33.3332 93.3334 33.3332C97.01 33.3332 100 30.3434 100 26.6666C100 22.99 97.01 20 93.3334 20ZM93.3334 30C91.4951 30 90 28.5051 90 26.6666C90 24.8283 91.4949 23.3332 93.3334 23.3332C95.1719 23.3332 96.6668 24.8281 96.6668 26.6666C96.6666 28.5051 95.1717 30 93.3334 30Z" fill="#E2224F"/>
<path d="M6.6666 75C2.99004 75 0 77.99 0 81.6666C0 85.3432 2.99004 88.3332 6.6666 88.3332C10.3434 88.3332 13.3332 85.3432 13.3332 81.6666C13.3332 77.99 10.3434 75 6.6666 75ZM6.6666 85C4.82832 85 3.3332 83.5051 3.3332 81.6666C3.3332 79.8281 4.82812 78.3332 6.6666 78.3332C8.50488 78.3332 10 79.8281 10 81.6666C10 83.5051 8.50508 85 6.6666 85Z" fill="#E2224F"/>
<path d="M90.1018 22.1066L75.7234 15.165C74.8934 14.7633 73.8984 15.1133 73.4984 15.9418C73.0984 16.7701 73.4467 17.7668 74.2752 18.1668L88.6535 25.1084C88.8869 25.2217 89.1336 25.275 89.3768 25.275C89.9967 25.275 90.5918 24.9283 90.8783 24.3316C91.2783 23.5033 90.9301 22.5066 90.1018 22.1066Z" fill="#E2224F"/>
<path d="M75 86.6666C71.3232 86.6666 68.3334 89.6566 68.3334 93.3332C68.3334 97.0098 71.3232 100 75 100C78.6768 100 81.6666 97.01 81.6666 93.3334C81.6666 89.6568 78.6768 86.6666 75 86.6666ZM75 96.6666C73.1617 96.6666 71.6666 95.1717 71.6666 93.3332C71.6666 91.4947 73.1617 90 75 90C76.8383 90 78.3334 91.4949 78.3334 93.3334C78.3334 95.1719 76.8383 96.6666 75 96.6666Z" fill="#E2224F"/>
<path d="M71.7684 88.7734L57.39 81.8318C56.56 81.4301 55.565 81.7785 55.165 82.6086C54.765 83.4369 55.1133 84.4336 55.9418 84.8336L70.3201 91.7752C70.5535 91.8885 70.8002 91.9418 71.0434 91.9418C71.6633 91.9418 72.2584 91.5951 72.5451 90.9984C72.9449 90.1699 72.5967 89.1734 71.7684 88.7734Z" fill="#E2224F"/>
<path d="M50 45C46.3232 45 43.3334 47.99 43.3334 51.6666C43.3334 55.3434 46.3234 58.3332 50 58.3332C53.6768 58.3332 56.6666 55.3432 56.6666 51.6666C56.6666 47.99 53.6768 45 50 45ZM50 55C48.1617 55 46.6666 53.5051 46.6666 51.6666C46.6666 49.8283 48.1615 48.3332 50 48.3332C51.8383 48.3332 53.3334 49.8281 53.3334 51.6666C53.3334 53.5051 51.8383 55 50 55Z" fill="#E2224F"/>
<path d="M47.0699 47.2934L36.025 38.685C35.2982 38.1232 34.2518 38.2482 33.685 38.975C33.1199 39.7018 33.2482 40.7482 33.975 41.315L45.0199 49.9234C45.325 50.1602 45.685 50.2752 46.0434 50.2752C46.54 50.2752 47.0301 50.0553 47.36 49.6336C47.925 48.9066 47.7967 47.86 47.0699 47.2934Z" fill="#E2224F"/>
<path d="M80 43.3334C69.8916 43.3334 61.6666 51.5584 61.6666 61.6668C61.6666 71.7752 69.8916 80.0002 80 80.0002C90.1084 80.0002 98.3334 71.7752 98.3334 61.6668C98.3334 51.5584 90.1084 43.3334 80 43.3334ZM80 76.6666C71.7283 76.6666 65 69.9383 65 61.6666C65 53.3949 71.7283 46.6666 80 46.6666C88.2717 46.6666 95 53.3949 95 61.6666C95 69.9383 88.2717 76.6666 80 76.6666Z" fill="#E2224F"/>
<path d="M80 50C76.3232 50 73.3334 52.99 73.3334 56.6666C73.3334 60.3434 76.3234 63.3332 80 63.3332C83.6768 63.3332 86.6666 60.3432 86.6666 56.6666C86.6666 52.99 83.6768 50 80 50ZM80 60C78.1617 60 76.6666 58.5051 76.6666 56.6666C76.6666 54.8283 78.1615 53.3332 80 53.3332C81.8383 53.3332 83.3334 54.8281 83.3334 56.6666C83.3334 58.5051 81.8383 60 80 60Z" fill="#E2224F"/>
<path d="M84.835 66.6666H75.165C72.3168 66.6666 70 68.9217 70 71.6916V76.085C70 76.6799 70.3166 77.2299 70.8316 77.5283C73.625 79.1449 76.7949 80 80 80C83.2051 80 86.375 79.1449 89.1684 77.5283C89.6834 77.2316 90 76.6799 90 76.0867V71.6934C90 68.9217 87.6834 66.6666 84.835 66.6666ZM86.6666 75.0916C82.5184 77.1582 77.4816 77.1582 73.3332 75.0916V71.6934C73.3332 70.76 74.1549 70 75.1648 70H84.8348C85.8447 70 86.6664 70.76 86.6664 71.6934V75.0916H86.6666Z" fill="#E2224F"/>
<path d="M40 63.3334C29.8916 63.3334 21.6666 71.5584 21.6666 81.6668C21.6666 91.7752 29.8916 100 40 100C50.1084 100 58.3334 91.775 58.3334 81.6666C58.3334 71.5582 50.1084 63.3334 40 63.3334ZM40 96.6666C31.7283 96.6666 25 89.9383 25 81.6666C25 73.3949 31.7283 66.6666 40 66.6666C48.2717 66.6666 55 73.3949 55 81.6666C55 89.9383 48.2717 96.6666 40 96.6666Z" fill="#E2224F"/>
<path d="M40 70C36.3232 70 33.3334 72.99 33.3334 76.6666C33.3334 80.3434 36.3234 83.3332 40 83.3332C43.6766 83.3332 46.6666 80.3432 46.6666 76.6666C46.6666 72.99 43.6768 70 40 70ZM40 80C38.1617 80 36.6666 78.5051 36.6666 76.6666C36.6666 74.8283 38.1615 73.3332 40 73.3332C41.8383 73.3332 43.3334 74.8281 43.3334 76.6666C43.3334 78.5051 41.8383 80 40 80Z" fill="#E2224F"/>
<path d="M44.835 86.6666H35.165C32.3168 86.6666 30 88.9217 30 91.6916V96.085C30 96.6799 30.3166 97.2299 30.8316 97.5283C33.625 99.1449 36.7949 100 40 100C43.2051 100 46.375 99.1449 49.1684 97.5283C49.6834 97.2316 50 96.6801 50 96.0867V91.6934C50 88.9217 47.6834 86.6666 44.835 86.6666ZM46.6666 95.0916C42.5182 97.1582 37.4816 97.1582 33.3332 95.0916V91.6934C33.3332 90.76 34.1549 90 35.1648 90H44.8348C45.8447 90 46.6664 90.76 46.6664 91.6934L46.6666 95.0916Z" fill="#E2224F"/>
<path d="M18.3334 21.6666C8.225 21.6666 0 29.8916 0 40C0 50.1084 8.225 58.3334 18.3334 58.3334C28.4418 58.3334 36.6668 50.1084 36.6668 40C36.6666 29.8916 28.4416 21.6666 18.3334 21.6666ZM18.3334 55C10.0617 55 3.3334 48.2717 3.3334 40C3.3334 31.7283 10.0617 25 18.3334 25C26.6051 25 33.3334 31.7283 33.3334 40C33.3334 48.2717 26.6051 55 18.3334 55Z" fill="#E2224F"/>
<path d="M18.3334 28.3334C14.6566 28.3334 11.6668 31.3234 11.6668 35C11.6668 38.6766 14.6568 41.6666 18.3334 41.6666C22.0102 41.6666 25 38.6766 25 35C25 31.3234 22.01 28.3334 18.3334 28.3334ZM18.3334 38.3334C16.4951 38.3334 15 36.8385 15 35C15 33.1615 16.4949 31.6666 18.3334 31.6666C20.1717 31.6666 21.6668 33.1615 21.6668 35C21.6668 36.8385 20.1717 38.3334 18.3334 38.3334Z" fill="#E2224F"/>
<path d="M23.1684 45H13.4984C10.6502 45 8.3334 47.2551 8.3334 50.025V54.4184C8.3334 55.0133 8.65 55.5633 9.16504 55.8617C11.9584 57.4783 15.1283 58.3334 18.3334 58.3334C21.5385 58.3334 24.7084 57.4783 27.5018 55.8617C28.0168 55.565 28.3334 55.0133 28.3334 54.4201V50.0268C28.3334 47.2551 26.0166 45 23.1684 45ZM25 53.425C20.8518 55.4916 15.815 55.4916 11.6666 53.425V50.0268C11.6666 49.0934 12.4883 48.3334 13.4982 48.3334H23.1682C24.1781 48.3334 24.9998 49.0934 24.9998 50.0268L25 53.425Z" fill="#E2224F"/>
<path d="M58.3334 0C48.225 0 40 8.225 40 18.3334C40 28.4418 48.225 36.6668 58.3334 36.6668C68.4418 36.6668 76.6668 28.4418 76.6668 18.3334C76.6666 8.225 68.4416 0 58.3334 0ZM58.3334 33.3334C50.0617 33.3334 43.3334 26.6051 43.3334 18.3334C43.3334 10.0617 50.0617 3.3334 58.3334 3.3334C66.6051 3.3334 73.3334 10.0617 73.3334 18.3334C73.3334 26.6051 66.6051 33.3334 58.3334 33.3334Z" fill="#E2224F"/>
<path d="M58.3334 6.6666C54.6566 6.6666 51.6668 9.65664 51.6668 13.3332C51.6668 17.0098 54.6568 19.9998 58.3334 19.9998C62.01 19.9998 65 17.01 65 13.3334C65 9.65684 62.01 6.6666 58.3334 6.6666ZM58.3334 16.6666C56.4951 16.6666 55 15.1717 55 13.3332C55 11.4949 56.4949 9.9998 58.3334 9.9998C60.1719 9.9998 61.6668 11.4947 61.6668 13.3332C61.6666 15.1717 60.1717 16.6666 58.3334 16.6666Z" fill="#E2224F"/>
<path d="M63.1684 23.3334H53.4984C50.6502 23.3334 48.3334 25.5885 48.3334 28.3584V32.7518C48.3334 33.3467 48.65 33.8967 49.165 34.1951C51.9584 35.8117 55.1283 36.6668 58.3334 36.6668C61.5385 36.6668 64.7084 35.8117 67.5018 34.1951C68.0168 33.8984 68.3334 33.3467 68.3334 32.7535V28.3602C68.3334 25.5883 66.0166 23.3334 63.1684 23.3334ZM65 31.7584C60.8518 33.825 55.815 33.825 51.6666 31.7584V28.3602C51.6666 27.4268 52.4883 26.6668 53.4982 26.6668H63.1682C64.1781 26.6668 64.9998 27.4268 64.9998 28.3602L65 31.7584Z" fill="#E2224F"/>
<path d="M42.935 17.2482C42.3367 16.5516 41.285 16.4682 40.585 17.0666L29.035 26.95C28.335 27.5482 28.2533 28.6 28.8516 29.3C29.1816 29.685 29.6482 29.8834 30.1182 29.8834C30.5016 29.8834 30.8865 29.7518 31.2016 29.4816L42.7516 19.5982C43.4518 19 43.5334 17.9482 42.935 17.2482Z" fill="#E2224F"/>
<path d="M79.6666 44.0018L69.6666 30.6684C69.1148 29.9301 68.0699 29.785 67.3332 30.335C66.5965 30.8867 66.4482 31.9316 66.9998 32.6666L76.9998 46C77.3281 46.4367 77.8281 46.6666 78.3348 46.6666C78.6814 46.6666 79.0332 46.5582 79.3332 46.3332C80.0699 45.7816 80.2184 44.7367 79.6666 44.0018Z" fill="#E2224F"/>
<path d="M65.9883 67.1783C65.4365 66.4416 64.3916 66.2934 63.6549 66.8449L54.3449 73.8266C53.6082 74.3783 53.46 75.4232 54.0115 76.1582C54.3398 76.5949 54.8398 76.8248 55.3465 76.8248C55.6947 76.8248 56.0447 76.7148 56.3449 76.4914L65.6549 69.5098C66.3916 68.9584 66.54 67.9133 65.9883 67.1783Z" fill="#E2224F"/>
<path d="M23.3334 80H11.6666C10.7467 80 10 80.7449 10 81.6666C10 82.5883 10.7467 83.3332 11.6666 83.3332H23.3332C24.2531 83.3332 24.9998 82.5883 24.9998 81.6666C24.9998 80.7449 24.2533 80 23.3334 80Z" fill="#E2224F"/>
<path d="M18.3334 0C14.6566 0 11.6666 2.99004 11.6666 6.6666C11.6666 10.3434 14.6566 13.3332 18.3332 13.3332C22.01 13.3332 24.9998 10.3432 24.9998 6.6666C25 2.99004 22.01 0 18.3334 0ZM18.3334 10C16.4951 10 15 8.50508 15 6.6666C15 4.82832 16.4949 3.3332 18.3334 3.3332C20.1717 3.3332 21.6668 4.82812 21.6668 6.6666C21.6666 8.50508 20.1717 10 18.3334 10Z" fill="#E2224F"/>
<path d="M18.3334 10C17.4135 10 16.6668 10.7449 16.6668 11.6666V23.3332C16.6668 24.2549 17.4135 24.9998 18.3334 24.9998C19.2533 24.9998 20 24.2549 20 23.3332V11.6666C20 10.7449 19.2533 10 18.3334 10Z" fill="#E2224F"/>
</svg>
