<svg width="60" height="60" viewBox="0 0 60 60" fill="none" xmlns="http://www.w3.org/2000/svg">
<path d="M41.5638 21.189H38.902C38.7394 20.6732 38.5327 20.1737 38.2832 19.6945L40.1653 17.8124C40.4004 17.5772 40.5299 17.2644 40.5299 16.9317C40.5299 16.5989 40.4004 16.2861 40.1653 16.0509L37.9503 13.8359C37.4647 13.3506 36.6746 13.3504 36.1889 13.836L34.3067 15.7181C33.8275 15.4686 33.328 15.2618 32.8122 15.0994V12.4375C32.8121 11.7508 32.2534 11.1919 31.5665 11.1919H28.434C27.7473 11.1919 27.1885 11.7506 27.1885 12.4375V15.0994C26.6727 15.2619 26.1732 15.4686 25.6939 15.7181L23.8117 13.8359C23.326 13.3505 22.536 13.3506 22.0503 13.836L19.8355 16.0508C19.6002 16.286 19.4706 16.5988 19.4706 16.9316C19.4706 17.2643 19.6002 17.5771 19.8354 17.8123L21.7175 19.6944C21.468 20.1736 21.2612 20.6732 21.0988 21.1889H18.4369C17.7502 21.1889 17.1914 21.7477 17.1914 22.4345V25.567C17.1914 26.2537 17.7502 26.8125 18.4369 26.8125H21.0988C21.2613 27.3282 21.468 27.8279 21.7175 28.307L19.8354 30.1891C19.3498 30.6747 19.3498 31.4649 19.8354 31.9506L22.0503 34.1655C22.536 34.6513 23.3263 34.6511 23.8118 34.1655L25.6939 32.2834C26.1731 32.5329 26.6728 32.7397 27.1885 32.9021V35.564C27.1885 36.2507 27.7473 36.8095 28.434 36.8095H31.5665C32.2532 36.8095 32.8121 36.2507 32.8121 35.564V32.9021C33.3277 32.7397 33.8274 32.5329 34.3066 32.2834L36.1887 34.1655C36.6745 34.6513 37.4647 34.6511 37.9503 34.1655L40.1651 31.9506C40.4003 31.7154 40.5298 31.4026 40.5298 31.0699C40.5298 30.7372 40.4003 30.4244 40.1651 30.1891L38.283 28.307C38.5325 27.8278 38.7393 27.3282 38.9017 26.8125H41.5636C42.2504 26.8125 42.8092 26.2537 42.8092 25.567V22.4345C42.8093 21.7478 42.2505 21.189 41.5638 21.189ZM41.0517 25.0547H38.2323C37.824 25.0547 37.4695 25.3358 37.3764 25.7334C37.189 26.5344 36.8745 27.2941 36.4415 27.9913C36.226 28.3382 36.2779 28.7877 36.5666 29.0765L38.56 31.07L37.0696 32.5604L35.0762 30.5669C34.7874 30.2782 34.3379 30.2262 33.9908 30.4418C33.2935 30.8748 32.5338 31.1893 31.733 31.3768C31.3354 31.4697 31.0543 31.8242 31.0543 32.2326V35.0522H28.9467V32.2326C28.9467 31.8244 28.6656 31.4699 28.2679 31.3768C27.4672 31.1895 26.7075 30.875 26.0101 30.4418C25.6633 30.2266 25.2137 30.2782 24.9248 30.5669L22.9314 32.5604L21.441 31.07L23.4344 29.0765C23.7232 28.7878 23.775 28.3383 23.5596 27.9913C23.1266 27.294 22.8121 26.5343 22.6247 25.7334C22.5317 25.3358 22.1771 25.0547 21.7689 25.0547H18.9494V22.9471H21.7689C22.1771 22.9471 22.5316 22.6659 22.6247 22.2683C22.8121 21.4675 23.1266 20.7077 23.5596 20.0105C23.775 19.6636 23.7232 19.2141 23.4344 18.9252L21.441 16.9317L22.9314 15.4413L24.9248 17.4348C25.2133 17.7236 25.6631 17.7755 26.0101 17.56C26.7072 17.127 27.467 16.8124 28.2679 16.625C28.6656 16.5321 28.9467 16.1776 28.9467 15.7692V12.9497H31.0543V15.7692C31.0543 16.1775 31.3354 16.532 31.733 16.625C32.5339 16.8124 33.2935 17.127 33.9909 17.56C34.3375 17.7752 34.7873 17.7233 35.0762 17.4348L37.0696 15.4413L38.56 16.9317L36.5666 18.9252C36.2778 19.2139 36.226 19.6635 36.4415 20.0105C36.8744 20.7075 37.1889 21.4672 37.3764 22.2683C37.4695 22.6659 37.8239 22.9471 38.2323 22.9471H41.0517V25.0547Z" fill="#EA7E00"/>
<path d="M29.9996 19.2925C27.4032 19.2925 25.291 21.4048 25.291 24.0011C25.291 26.5973 27.4033 28.7097 29.9996 28.7097C32.5959 28.7097 34.7082 26.5973 34.7082 24.0011C34.7082 21.4048 32.596 19.2925 29.9996 19.2925ZM29.9996 26.9518C28.3726 26.9518 27.0488 25.6281 27.0488 24.0011C27.0488 22.374 28.3726 21.0503 29.9996 21.0503C31.6266 21.0503 32.9504 22.374 32.9504 24.0011C32.9504 25.6281 31.6266 26.9518 29.9996 26.9518Z" fill="#EA7E00"/>
<path d="M9.7928 23.1226H6.87695C6.39156 23.1226 5.99805 23.5161 5.99805 24.0015C5.99805 24.4869 6.39156 24.8804 6.87695 24.8804H9.7928C10.2782 24.8804 10.6717 24.4869 10.6717 24.0015C10.6717 23.5161 10.2782 23.1226 9.7928 23.1226Z" fill="#EA7E00"/>
<path d="M53.1229 23.1226H50.207C49.7215 23.1226 49.3281 23.5161 49.3281 24.0015C49.3281 24.4869 49.7215 24.8804 50.207 24.8804H53.1229C53.6084 24.8804 54.0018 24.4869 54.0018 24.0015C54.0018 23.5161 53.6083 23.1226 53.1229 23.1226Z" fill="#EA7E00"/>
<path d="M16.3337 37.6671C15.9906 37.3239 15.4341 37.3239 15.0907 37.6671L13.0289 39.7289C12.6857 40.0721 12.6857 40.6287 13.0289 40.9719C13.3722 41.3152 13.9287 41.3152 14.2719 40.9719L16.3337 38.9101C16.677 38.5669 16.677 38.0103 16.3337 37.6671Z" fill="#EA7E00"/>
<path d="M46.9725 7.02989C46.6292 6.68665 46.0727 6.68665 45.7294 7.02989L43.6676 9.09168C43.3243 9.43492 43.3243 9.99145 43.6676 10.3347C44.0109 10.6779 44.5674 10.6778 44.9107 10.3347L46.9725 8.2729C47.3158 7.92954 47.3158 7.37302 46.9725 7.02989Z" fill="#EA7E00"/>
<path d="M30 0C29.5145 0 29.1211 0.393515 29.1211 0.878905V3.79476C29.1211 4.28015 29.5145 4.67366 30 4.67366C30.4855 4.67366 30.8789 4.28015 30.8789 3.79476V0.878905C30.8789 0.393515 30.4855 0 30 0Z" fill="#EA7E00"/>
<path d="M46.9725 39.7289L44.9107 37.6671C44.5674 37.3239 44.0109 37.3239 43.6676 37.6671C43.3243 38.0103 43.3243 38.567 43.6676 38.9101L45.7294 40.9719C46.0727 41.3152 46.6292 41.3152 46.9725 40.9719C47.3158 40.6287 47.3158 40.0721 46.9725 39.7289Z" fill="#EA7E00"/>
<path d="M16.3337 9.09168L14.2719 7.02989C13.9287 6.68665 13.3722 6.68665 13.0289 7.02989C12.6857 7.37313 12.6857 7.92966 13.0289 8.2729L15.0907 10.3347C15.4339 10.6779 15.9905 10.6779 16.3337 10.3347C16.677 9.99133 16.677 9.43481 16.3337 9.09168Z" fill="#EA7E00"/>
<path d="M47.5347 21.8479C46.5889 13.7766 40.1908 7.37794 32.1574 6.39872C31.6763 6.33954 31.2372 6.68302 31.1784 7.16478C31.1197 7.64665 31.4627 8.08493 31.9446 8.14376C39.2403 9.03297 44.9333 14.7525 45.7886 22.0525C45.841 22.4998 46.2208 22.8291 46.6604 22.8291C46.6946 22.8291 46.7291 22.8271 46.7639 22.8231C47.2462 22.7667 47.5912 22.3301 47.5347 21.8479Z" fill="#EA7E00"/>
<path d="M46.754 25.1796C46.2717 25.1182 45.8326 25.4596 45.7717 25.9412C45.1725 30.6742 42.5011 34.8504 38.4424 37.3986C36.6927 38.4972 35.6482 40.3774 35.6482 42.4279V46.0452H24.3533V42.3479C24.3533 40.3623 23.3156 38.4863 21.6454 37.4524C16.922 34.5286 14.102 29.4711 14.1019 23.9236C14.1019 15.9136 20.1017 9.13009 28.0579 8.14455C28.5396 8.0849 28.8817 7.64591 28.822 7.16416C28.7624 6.68252 28.3236 6.33951 27.8416 6.39998C19.0508 7.489 12.3436 15.0488 12.3438 23.9236C12.3438 26.986 13.1403 30.0034 14.6474 32.6495C16.1084 35.2147 18.2083 37.3923 20.7198 38.947C21.8766 39.663 22.5951 40.9661 22.5951 42.3478V46.1731C21.7014 46.4837 21.057 47.3323 21.057 48.3304V49.5834C21.057 50.1139 21.2403 50.6015 21.5446 50.9898C21.2401 51.378 21.057 51.8655 21.057 52.3961V53.649C21.057 54.9091 22.0822 55.9342 23.3422 55.9342H26.1055V57.9212C26.1055 59.0674 27.038 59.9998 28.1841 59.9998H31.8165C32.9627 59.9998 33.8951 59.0674 33.8951 57.9212V55.9342H36.6584C37.9185 55.9342 38.9436 54.909 38.9436 53.649V52.3961C38.9436 51.8656 38.7603 51.378 38.4559 50.9898C38.7603 50.6015 38.9436 50.114 38.9436 49.5834V48.3304C38.9436 47.3322 38.2993 46.4837 37.4055 46.1731V42.4278C37.4055 40.9858 38.1423 39.6623 39.3766 38.8874C43.8829 36.058 46.8494 31.4197 47.5149 26.162C47.5765 25.6803 47.2356 25.2405 46.754 25.1796ZM32.1375 57.921C32.1375 58.0948 31.9907 58.2418 31.8169 58.2418H28.1844C28.0106 58.2418 27.8638 58.0949 27.8638 57.921V55.9341H32.1375V57.921ZM37.1862 53.6489C37.1862 53.9347 36.9446 54.1762 36.6588 54.1762C35.1073 54.1762 24.8067 54.1762 23.3426 54.1762C23.0568 54.1762 22.8153 53.9347 22.8153 53.6489V52.396C22.8153 52.1102 23.0568 51.8687 23.3426 51.8687H36.6588C36.9446 51.8687 37.1862 52.1102 37.1862 52.396V53.6489ZM37.1862 49.5833C37.1862 49.8691 36.9446 50.1106 36.6588 50.1106H23.3426C23.0568 50.1106 22.8153 49.8691 22.8153 49.5833V48.3303C22.8153 48.0445 23.0568 47.803 23.3426 47.803H36.6588C36.9446 47.803 37.1862 48.0445 37.1862 48.3303V49.5833Z" fill="#EA7E00"/>
</svg>
