<svg width="60" height="60" viewBox="0 0 60 60" fill="none" xmlns="http://www.w3.org/2000/svg">
<g clip-path="url(#clip0)">
<path d="M58.5822 28.0739C57.684 27.2454 56.4622 26.7336 55.2299 26.6695C53.8306 26.5972 52.5195 27.0961 51.5431 28.073L44.8717 34.6744C44.7398 34.446 44.5892 34.2304 44.4203 34.0303C43.5995 33.0558 42.3993 32.5193 41.0411 32.5193H31.7018C29.9408 32.5193 28.2228 32.2908 26.5959 31.8408C22.3543 30.6676 18.3021 31.5245 14.8767 34.3206C13.4837 35.4576 12.4675 36.6945 11.8248 37.5963L10.1503 35.9713C9.9301 35.7575 9.63163 35.6362 9.32447 35.6362C9.32173 35.6362 9.31944 35.6362 9.31669 35.6362C8.99855 35.6385 8.69093 35.7707 8.47029 35.9996L0.329872 44.4504C0.111977 44.6765 -0.00658399 44.9805 0.000282463 45.2945C0.00714892 45.609 0.138527 45.9075 0.366036 46.124L14.1342 59.2339C14.3626 59.4513 14.6556 59.5598 14.9481 59.5598C15.2553 59.5598 15.5624 59.4403 15.7936 59.2032L23.858 50.9296C24.0782 50.7035 24.2004 50.3945 24.1945 50.0786C24.1885 49.7673 24.0581 49.467 23.8347 49.2501L23.1325 48.5689L24.7397 48.3881C25.712 48.275 26.7007 48.2178 27.6794 48.2178H41.8889C44.1978 48.2178 46.1589 47.7129 47.718 46.7168C47.7309 46.7086 47.7437 46.6999 47.7565 46.6912C48.315 46.303 48.8217 45.8429 49.2621 45.3243L58.8376 34.0592C60.4764 32.1315 60.3738 29.726 58.5822 28.0739V28.0739ZM14.9174 56.7203L2.85352 45.2332L9.3524 38.4862L21.3458 50.1249L14.9174 56.7203ZM57.039 32.5302L47.4635 43.7958C47.1596 44.1533 46.8112 44.471 46.4271 44.7402C45.2566 45.4813 43.73 45.8576 41.8889 45.8576H27.679C26.6101 45.8576 25.5293 45.9203 24.4714 46.0434L20.9384 46.4399L13.5409 39.2612C14.055 38.499 15.0003 37.2672 16.3695 36.1493C19.2158 33.8257 22.4449 33.1414 25.9665 34.1159C27.7984 34.6227 29.7279 34.8799 31.7018 34.8799H41.0411C42.7183 34.8799 43.166 36.3329 43.166 37.1912C43.166 37.8183 42.9646 38.4153 42.6135 38.8291C42.2327 39.2772 41.6911 39.5043 41.004 39.5043H32.8741C32.2223 39.5043 31.694 40.033 31.694 40.6848C31.694 41.3367 32.2223 41.865 32.8741 41.865H41.004C42.3764 41.865 43.5867 41.3294 44.4125 40.3571C45.0996 39.5487 45.4915 38.4857 45.5244 37.3496L53.208 29.7466C54.3062 28.6484 56.0219 28.924 56.9818 29.8093C57.478 30.2671 58.1454 31.2288 57.039 32.5302V32.5302Z" fill="#EA7E00"/>
<path d="M29.1928 40.3711C29.0441 39.7361 28.4091 39.3429 27.7742 39.4912C27.1398 39.64 26.7456 40.2749 26.8949 40.9099L26.9058 40.9579C27.0336 41.5017 27.5183 41.8689 28.0539 41.8689C28.1432 41.8689 28.2338 41.8588 28.3244 41.8377C28.9594 41.689 29.353 41.0536 29.2043 40.4191L29.1928 40.3711Z" fill="#EA7E00"/>
<path d="M7.97696 25.3711H19.4778C20.104 25.3711 20.6836 25.1679 21.1551 24.8245C21.6266 25.1679 22.2061 25.3711 22.8323 25.3711H34.3336C34.9598 25.3711 35.5394 25.1679 36.0109 24.8245C36.4824 25.1679 37.0619 25.3711 37.6881 25.3711H49.189C50.7646 25.3711 52.0463 24.0889 52.0463 22.5133V17.1501C52.0463 14.7414 50.6982 12.6489 48.6804 11.6167C49.6582 10.4375 50.2469 8.92502 50.2469 7.27707C50.2469 3.52295 47.1927 0.46875 43.4385 0.46875C39.6844 0.46875 36.6302 3.52295 36.6302 7.27707C36.6302 8.92502 37.2189 10.4379 38.1967 11.6167C37.3247 12.0635 36.578 12.7084 36.0109 13.4908C35.4437 12.708 34.6971 12.063 33.8246 11.6167C34.8024 10.4379 35.3911 8.92502 35.3911 7.27707C35.3911 3.52295 32.3369 0.46875 28.5827 0.46875C24.8286 0.46875 21.7744 3.52295 21.7744 7.27707C21.7744 8.92502 22.3636 10.4379 23.3413 11.6171C22.4688 12.0635 21.7222 12.7084 21.1551 13.4912C20.5879 12.7084 19.8413 12.0635 18.9688 11.6167C19.9466 10.4379 20.5353 8.92502 20.5353 7.27753C20.5353 3.52295 17.4811 0.46875 13.7269 0.46875C9.97327 0.46875 6.91907 3.52295 6.91907 7.27753C6.91907 8.92502 7.50775 10.4379 8.48554 11.6171C6.46771 12.6494 5.11914 14.7423 5.11914 17.1506V22.5133C5.11914 24.0889 6.40134 25.3711 7.97696 25.3711V25.3711ZM43.439 2.82944C45.8912 2.82944 47.8866 4.82437 47.8866 7.27707C47.8866 9.72931 45.8912 11.7247 43.439 11.7247C40.9863 11.7247 38.9914 9.72977 38.9914 7.27707C38.9909 4.82437 40.9863 2.82944 43.439 2.82944ZM40.3724 13.353C41.2948 13.8203 42.3363 14.0854 43.4385 14.0854C44.5413 14.0854 45.5827 13.8203 46.5047 13.353C48.3389 13.6725 49.6861 15.2531 49.6861 17.1501V22.5133C49.6861 22.7875 49.4632 23.0104 49.189 23.0104H37.6881C37.4144 23.0104 37.1914 22.7875 37.1914 22.5133V17.1501C37.191 15.2536 38.5386 13.6725 40.3724 13.353ZM28.5832 2.82944C31.0354 2.82944 33.0308 4.82437 33.0308 7.27707C33.0308 9.72931 31.0354 11.7247 28.5832 11.7247C26.1305 11.7247 24.1356 9.72977 24.1356 7.27707C24.1356 4.82437 26.1305 2.82944 28.5832 2.82944ZM25.5171 13.353C26.439 13.8203 27.4804 14.0854 28.5832 14.0854C29.686 14.0854 30.7269 13.8203 31.6493 13.353C33.4831 13.6725 34.8308 15.2531 34.8308 17.1501V22.5133C34.8308 22.7875 34.6078 23.0104 34.3336 23.0104H22.8328C22.5586 23.0104 22.3356 22.7875 22.3356 22.5133V17.1501C22.3356 15.2536 23.6833 13.6725 25.5171 13.353ZM13.7274 2.82944C16.1796 2.82944 18.175 4.82437 18.175 7.27707C18.175 9.72931 16.1796 11.7247 13.7274 11.7247C11.2751 11.7247 9.27976 9.72931 9.27976 7.27707C9.27976 4.82437 11.2751 2.82944 13.7274 2.82944ZM7.47983 17.1501C7.47983 15.2536 8.82749 13.6725 10.6613 13.353C11.5837 13.8203 12.6246 14.0854 13.7274 14.0854C14.8301 14.0854 15.8711 13.8203 16.7935 13.353C18.6278 13.6725 19.9749 15.2531 19.9749 17.1501V22.5133C19.9749 22.7875 19.752 23.0104 19.4778 23.0104H7.97696C7.70276 23.0104 7.47983 22.7875 7.47983 22.5133V17.1501Z" fill="#EA7E00"/>
</g>
<defs>
<clipPath id="clip0">
<rect width="60" height="60" fill="white"/>
</clipPath>
</defs>
</svg>
