<svg width="60" height="60" viewBox="0 0 60 60" fill="none" xmlns="http://www.w3.org/2000/svg">
<path d="M29.895 7.62422C30.5468 7.62422 31.0752 7.09582 31.0752 6.44402V1.1802C31.0752 0.528398 30.5468 0 29.895 0C29.2432 0 28.7148 0.528398 28.7148 1.1802V6.44402C28.715 7.09582 29.2434 7.62422 29.895 7.62422Z" fill="#EA7E00"/>
<path d="M58.7445 40.5452L56.6596 38.4662C55.9179 37.7254 54.9294 37.3174 53.8761 37.3174C53.2027 37.3174 52.5561 37.485 51.9832 37.7989L48.0544 33.8748L48.2457 33.6836C49.8396 32.0866 49.839 29.4915 48.2456 27.8999C47.6762 27.3294 46.9657 26.949 46.1912 26.7889C46.2978 26.4208 46.354 26.0353 46.354 25.6407C46.354 24.5444 45.9281 23.5165 45.1573 22.7488C44.5877 22.1783 43.8773 21.7979 43.1028 21.6378C43.2095 21.2697 43.2656 20.8843 43.2656 20.4896C43.2656 19.3932 42.8398 18.3654 42.0676 17.5965C41.4845 17.0141 40.7677 16.6454 40.015 16.4885C40.4176 15.1002 40.0736 13.5382 38.9814 12.4441C38.0722 11.5388 36.8386 11.1498 35.6497 11.2759L27.8644 9.80224C26.677 9.57701 25.1943 9.42806 24.2583 10.2818C24.1992 10.3357 24.139 10.3977 24.0797 10.4667C22.6284 9.93771 20.9358 10.2527 19.7736 11.4136C19.0027 12.1836 18.578 13.2111 18.578 14.3068C18.578 14.7015 18.6339 15.0869 18.7404 15.4551C17.9667 15.6151 17.2571 15.995 16.6896 16.5636C15.9171 17.3329 15.4911 18.3593 15.4903 19.4537C15.49 19.8493 15.5461 20.236 15.6532 20.6052C14.8792 20.7648 14.1691 21.144 13.5998 21.7126C12.8273 22.4843 12.402 23.5124 12.402 24.6075C12.402 25.4463 12.6524 26.2454 13.1164 26.9204C12.5305 27.119 11.9938 27.4496 11.5444 27.8986C9.94945 29.4915 9.94887 32.0867 11.5454 33.6861L11.7361 33.876L7.8068 37.7981C6.34652 37.1106 4.54734 37.3681 3.3423 38.5717L1.25613 40.652C0.514102 41.3931 0.105586 42.3817 0.105469 43.4355C0.105469 44.4895 0.514102 45.4782 1.25613 46.2194L3.85969 48.8198C4.32082 49.2805 5.06812 49.28 5.52867 48.8189C5.98934 48.3577 5.98887 47.6104 5.52773 47.1499L2.92418 44.5495C2.62863 44.2543 2.46586 43.8587 2.46586 43.4356C2.46586 43.0127 2.62863 42.6172 2.92348 42.3227L5.00977 40.2423C5.53102 39.7216 6.32883 39.644 6.93469 40.0063C6.97734 40.0704 7.02668 40.1313 7.08316 40.1879C7.1843 40.2893 7.29973 40.367 7.4223 40.4238L19.3863 52.3702C19.4432 52.4941 19.5212 52.6107 19.623 52.7127C19.7222 52.8119 19.8353 52.8887 19.9553 52.9452C20.2083 53.2312 20.3481 53.5966 20.3481 53.9864C20.3481 54.4094 20.1853 54.8049 19.8898 55.1001L17.8056 57.1818C17.1898 57.795 16.188 57.7949 15.5741 57.1837L12.9705 54.5799C12.5096 54.119 11.7625 54.119 11.3016 54.5799C10.8407 55.0408 10.8407 55.788 11.3016 56.2489L13.907 58.8546C14.6739 59.6183 15.681 60 16.6886 60C17.6964 60 18.7046 59.6177 19.4725 58.8533L21.5579 56.7703C22.3 56.0291 22.7086 55.0405 22.7086 53.9864C22.7086 53.2342 22.4994 52.5158 22.1105 51.8963L26.5327 47.4795C26.5373 47.4747 26.542 47.4699 26.5468 47.4651C27.0532 46.9417 28.4633 47.0396 29.827 47.1343C30.7959 47.2017 31.8762 47.2766 32.9316 47.1549L37.7742 51.9918C37.4605 52.5638 37.293 53.2095 37.293 53.882C37.293 54.9349 37.7017 55.9229 38.4437 56.6641L40.5293 58.7471C41.2709 59.4879 42.2593 59.8959 43.3126 59.8959C44.3658 59.8959 45.3543 59.488 46.0959 58.7471L58.7453 46.1131C59.4873 45.372 59.8959 44.3835 59.8959 43.3295C59.8958 42.2756 59.4872 41.287 58.7445 40.5452V40.5452ZM27.4249 12.1214L32.5445 13.0904L29.4802 16.1536C29.0061 15.9258 28.3564 15.5008 27.6437 14.819C26.6681 13.8858 25.9703 12.8082 25.9068 12.1361C25.9066 12.1358 25.9066 12.1354 25.9066 12.1351C25.9066 12.135 25.9065 12.1349 25.9065 12.1347C25.902 12.0865 25.9008 12.0479 25.9014 12.0185C26.0557 11.981 26.4656 11.9394 27.4249 12.1214ZM21.4416 13.0836C22.0395 12.4863 22.9683 12.4174 23.6439 12.8749C24.0267 14.4801 25.3961 15.935 26.0121 16.5245C26.4687 16.9613 27.9336 18.2711 29.4123 18.6311C29.6123 18.9179 29.7212 19.2597 29.7212 19.6204C29.7212 20.0851 29.5425 20.5195 29.2168 20.8448C28.8921 21.1701 28.457 21.3492 27.9915 21.3492C27.5259 21.3492 27.0908 21.1701 26.7646 20.8433L26.7645 20.8432L26.7639 20.8426L21.4414 15.5298C21.117 15.2058 20.9382 14.7713 20.9382 14.3068C20.9384 13.8422 21.1171 13.4077 21.4416 13.0836V13.0836ZM18.3577 18.2336C18.6824 17.9085 19.117 17.7293 19.5818 17.7293C20.0471 17.7293 20.4832 17.9088 20.81 18.2353L25.0958 22.5125C25.7707 23.1885 25.7707 24.2884 25.0982 24.962C24.7717 25.2872 24.335 25.4662 23.8687 25.4662C23.4025 25.4662 22.9658 25.2872 22.6407 24.9634L22.6406 24.9633L19.3893 21.7126C19.3842 21.7076 19.3787 21.7029 19.3736 21.6977L18.3564 20.681C18.03 20.355 17.8504 19.9197 17.8507 19.4554C17.8512 18.9927 18.0302 18.5597 18.3577 18.2336V18.2336ZM15.2679 23.3826C15.5929 23.0581 16.0284 22.8794 16.4946 22.8794C16.9569 22.8794 17.3888 23.0556 17.7123 23.3744L20.9736 26.6342C21.2988 26.9581 21.478 27.3921 21.478 27.8561C21.478 28.3201 21.2988 28.754 20.9723 29.0792C20.6475 29.4036 20.2124 29.5823 19.747 29.5823C19.281 29.5823 18.8445 29.4031 18.5191 29.0792L17.3368 27.8983C17.3366 27.898 17.3362 27.8977 17.336 27.8975L15.268 25.832C14.942 25.5063 14.7625 25.0713 14.7625 24.6072C14.7625 24.1433 14.942 23.7082 15.2679 23.3826V23.3826ZM13.2124 29.5685C13.5388 29.2425 13.975 29.0629 14.4405 29.0629C14.906 29.0629 15.3421 29.2424 15.6683 29.5681L16.8523 30.7507C17.1776 31.0746 17.3566 31.5085 17.3566 31.9726C17.3566 32.4367 17.1775 32.8705 16.8498 33.197C16.5251 33.5222 16.09 33.7013 15.6245 33.7013C15.1589 33.7013 14.7238 33.5223 14.3967 33.1946L14.2485 33.047C14.2465 33.045 14.245 33.0429 14.2431 33.041C14.2409 33.0389 14.2385 33.037 14.2363 33.0349L13.2136 32.0162C12.5387 31.3399 12.5381 30.242 13.2124 29.5685ZM37.2633 42.9815C36.8026 42.5203 36.0553 42.5199 35.5943 42.9805L34.5443 44.0292C33.5466 45.0269 31.7387 44.9013 29.9904 44.78C28.0918 44.6481 26.1286 44.5119 24.8582 45.8162L20.5111 50.158L9.64043 39.3033L13.4875 35.4631C14.1233 35.8529 14.857 36.0618 15.6247 36.0618C16.7215 36.0618 17.7499 35.6367 18.5181 34.8671C19.2914 34.097 19.7174 33.0691 19.7174 31.9727C19.7174 31.9625 19.7167 31.9524 19.7167 31.9422C19.7269 31.9424 19.7371 31.9429 19.7473 31.9429C20.8425 31.9429 21.8701 31.5191 22.6393 30.7508C23.4127 29.9806 23.8386 28.9527 23.8386 27.8564C23.8386 27.8462 23.8379 27.8361 23.8379 27.8259C23.8482 27.8259 23.8586 27.8266 23.869 27.8266C24.9639 27.8266 25.9921 27.4032 26.7664 26.632C27.5704 25.8268 27.968 24.7667 27.9604 23.7089C27.9709 23.709 27.9814 23.7096 27.992 23.7096C29.0887 23.7095 30.1171 23.2844 30.8864 22.5137C31.6574 21.7436 32.0821 20.7161 32.0821 19.6204C32.0821 18.8542 31.8737 18.1216 31.4852 17.487L34.8571 14.1166C35.1083 13.8664 35.4182 13.7094 35.7429 13.6446C35.778 13.6408 35.8127 13.6352 35.8471 13.6284C36.3681 13.5566 36.9152 13.7174 37.3137 14.1142C37.9886 14.7902 37.9886 15.8901 37.3161 16.5637L36.2892 17.5864C36.2858 17.5898 36.2822 17.5929 36.2788 17.5963L35.096 18.777C34.6348 19.2376 34.6343 19.9849 35.095 20.446C35.5557 20.9073 36.3029 20.9076 36.7639 20.4471L37.795 19.4175C37.7952 19.4172 37.7954 19.417 37.7957 19.4168L37.9515 19.2615C38.6283 18.591 39.7247 18.5924 40.4007 19.2675C40.7261 19.5914 40.9052 20.0253 40.9052 20.4894C40.9052 20.9533 40.7261 21.3873 40.3982 21.7138L39.3654 22.7486C39.3653 22.7488 39.3652 22.7489 39.365 22.7491L38.1824 23.927C37.7205 24.3869 37.719 25.1342 38.179 25.596C38.6389 26.0578 39.3861 26.0592 39.848 25.5994L41.036 24.4161C41.3607 24.0908 41.7959 23.9117 42.2613 23.9117C42.7269 23.9117 43.1621 24.0908 43.4892 24.4185C43.8145 24.7425 43.9936 25.1764 43.9936 25.6405C43.9936 26.1044 43.8145 26.5384 43.4873 26.8642L41.4284 28.924C40.9676 29.385 40.9677 30.1322 41.4286 30.5929C41.6591 30.8233 41.961 30.9384 42.263 30.9384C42.5651 30.9384 42.8672 30.8231 43.0976 30.5926L44.1067 29.5831C44.1124 29.5776 44.1186 29.5728 44.1244 29.5671C44.4491 29.2418 44.8842 29.0627 45.3497 29.0627C45.8153 29.0627 46.2504 29.2418 46.5763 29.5683C47.2505 30.2417 47.2499 31.3398 46.5763 32.0145L45.5503 33.0393C45.55 33.0397 45.5495 33.0401 45.5491 33.0404C45.5488 33.0408 45.5484 33.0412 45.5481 33.0416L43.9196 34.668C43.4585 35.1287 43.458 35.876 43.9186 36.3371C44.1491 36.5679 44.4514 36.6833 44.7537 36.6833C45.0554 36.6833 45.3573 36.5682 45.5877 36.3382L46.3842 35.5426L50.2018 39.3558L39.3321 50.2122L35.4375 46.3223C35.709 46.1477 35.9688 45.9424 36.2127 45.6985L37.2621 44.6504C37.7235 44.19 37.7239 43.4427 37.2633 42.9815V42.9815ZM57.0771 44.4431L44.4278 57.0771C44.1319 57.3726 43.7358 57.5354 43.3125 57.5354C42.8892 57.5354 42.4931 57.3726 42.1971 57.077L40.1115 54.994C39.816 54.6989 39.6532 54.304 39.6532 53.882C39.6532 53.4601 39.816 53.0652 40.1115 52.77L52.7609 40.136C53.0569 39.8403 53.4529 39.6776 53.8762 39.6776C54.2995 39.6776 54.6956 39.8403 54.9923 40.1367L57.0772 42.2157C57.3728 42.5109 57.5355 42.9063 57.5355 43.3294C57.5354 43.7525 57.3727 44.148 57.0771 44.4431V44.4431Z" fill="#EA7E00"/>
<path d="M14.2232 6.62941C14.4536 6.85933 14.7552 6.97418 15.0569 6.97418C15.3592 6.97418 15.6617 6.85863 15.8922 6.62765C16.3526 6.16628 16.3519 5.4191 15.8906 4.95867L11.59 0.666675C11.1288 0.206246 10.3815 0.206832 9.92103 0.668316C9.4606 1.12968 9.4613 1.87687 9.92267 2.3373L14.2232 6.62941Z" fill="#EA7E00"/>
<path d="M44.7329 6.97413C45.0347 6.97413 45.3365 6.85905 45.5669 6.62901L49.8642 2.3369C50.3253 1.87636 50.3258 1.12905 49.8651 0.66792C49.4046 0.206787 48.6574 0.206319 48.1961 0.666983L43.8989 4.95909C43.4377 5.41964 43.4373 6.16694 43.8979 6.62808C44.1284 6.85882 44.4307 6.97413 44.7329 6.97413Z" fill="#EA7E00"/>
<path d="M7.36201 50.7659C6.90509 51.2307 6.91142 51.978 7.3763 52.4349L7.3797 52.4382C7.60904 52.6637 7.90681 52.7759 8.20447 52.7759C8.50997 52.7759 8.81548 52.6577 9.04693 52.4222C9.50384 51.9575 9.49575 51.2085 9.03099 50.7516C8.56634 50.2947 7.81915 50.3011 7.36201 50.7659V50.7659Z" fill="#EA7E00"/>
<path d="M40.148 41.2812C40.3276 41.2812 40.5097 41.2403 40.6806 41.1541C41.2626 40.8606 41.4964 40.1509 41.203 39.5689C40.9094 38.987 40.1996 38.7531 39.6178 39.0466L39.6112 39.0499C39.0292 39.3435 38.7987 40.0515 39.0922 40.6335C39.2994 41.0446 39.7161 41.2812 40.148 41.2812V41.2812Z" fill="#EA7E00"/>
</svg>
