<svg width="100" height="100" viewBox="0 0 100 100" fill="none" xmlns="http://www.w3.org/2000/svg">
<path d="M95.1613 90.4762C92.4939 90.4762 90.3226 92.613 90.3226 95.2381C90.3226 97.8632 92.4939 100 95.1613 100C97.8287 100 100 97.8632 100 95.2381C100 92.613 97.8287 90.4762 95.1613 90.4762ZM95.1613 96.8254C94.2729 96.8254 93.5484 96.1139 93.5484 95.2381C93.5484 94.3623 94.2729 93.6508 95.1613 93.6508C96.0496 93.6508 96.7742 94.3623 96.7742 95.2381C96.7742 96.1139 96.0496 96.8254 95.1613 96.8254Z" fill="#F3B702"/>
<path d="M9.67742 4.7619C9.67742 2.13681 7.50614 0 4.83871 0C2.17128 0 0 2.13681 0 4.7619C0 7.387 2.17128 9.52381 4.83871 9.52381C7.50614 9.52381 9.67742 7.387 9.67742 4.7619ZM3.22581 4.7619C3.22581 3.88765 3.95035 3.1746 4.83871 3.1746C5.72707 3.1746 6.45161 3.88765 6.45161 4.7619C6.45161 5.63616 5.72707 6.34921 4.83871 6.34921C3.95035 6.34921 3.22581 5.63616 3.22581 4.7619Z" fill="#F3B702"/>
<path d="M86.6471 62.903L83.4614 56.6337C84.1372 55.2843 84.716 53.921 85.1917 52.5639L91.9355 50.3511V32.1886L85.1917 29.9758C84.7176 28.6187 84.1372 27.2554 83.4614 25.906L86.6502 19.6305L73.6013 6.78866L67.2245 9.92684C65.8534 9.26184 64.4681 8.69063 63.0891 8.22405L60.8406 1.5873H42.3852L40.1367 8.22405C38.7577 8.69063 37.3724 9.26184 36.0013 9.92684L29.6245 6.78866L16.5756 19.6305L19.7644 25.906C19.0886 27.2554 18.5082 28.6187 18.0341 29.9758L11.2903 32.1886V50.3495L18.0341 52.5615C18.5051 53.9094 19.0776 55.2603 19.747 56.5988L17.6726 60.3175H8.06452V92.0635H19.3548V87.3016H31.5902L36.4289 92.0635H45.1613V93.6508C45.1613 97.1525 48.0548 100 51.6129 100C55.1711 100 58.0645 97.1525 58.0645 93.6508V92.0635H69.3564C72.0238 92.0635 74.1951 89.9267 74.1951 87.3016C74.1951 86.0778 73.71 84.9718 72.9374 84.127C73.7116 83.2822 74.1951 82.1762 74.1951 80.9524C74.1951 79.7286 73.71 78.6226 72.9374 77.7778C73.5533 77.105 73.9738 76.2649 74.1211 75.3286L86.6471 62.903ZM23.002 55.895C22.1144 54.2178 21.3907 52.5127 20.8496 50.8301L20.6015 50.0589L14.5161 48.0616V34.4765L20.6015 32.4808L20.848 31.7081C21.3867 30.027 22.1113 28.3219 22.9996 26.6447L23.3792 25.9254L20.4999 20.2575L30.26 10.6523L36.0194 13.4859L36.7503 13.1131C38.4561 12.238 40.1871 11.5258 41.8953 10.9949L42.6805 10.7523L44.7116 4.7619H58.5158L60.5437 10.7507L61.3289 10.9933C63.0371 11.5234 64.7697 12.2365 66.474 13.1107L67.2048 13.4843L72.9642 10.6507L82.7243 20.2559L79.845 25.9239L80.2238 26.6431C81.113 28.3219 81.8367 30.0254 82.3762 31.7065L82.6227 32.4792L88.7097 34.4781V48.0632L82.6243 50.0589L82.3762 50.8301C81.8352 52.5127 81.1114 54.2178 80.2238 55.895L79.845 56.6143L82.7274 62.2861L73.1965 71.7378C73.1146 71.6316 73.0272 71.527 72.9374 71.4286C73.7116 70.5838 74.1951 69.4778 74.1951 68.254C74.1951 65.7777 72.2578 63.7618 69.8014 63.5362C76.6436 58.1396 80.6452 50.0411 80.6452 41.2698C80.6452 25.5162 67.6207 12.6984 51.6129 12.6984C35.6052 12.6984 22.5806 25.5162 22.5806 41.2698C22.5806 49.9349 26.5838 58.0861 33.3787 63.4921H19.5824L23.3997 56.6476L23.002 55.895ZM70.9693 80.9524C70.9693 81.8282 70.2448 82.5397 69.3564 82.5397H56.4516C55.5633 82.5397 54.8387 81.8282 54.8387 80.9524C54.8387 80.0766 55.5633 79.3651 56.4516 79.3651H69.3564C70.2448 79.3651 70.9693 80.0766 70.9693 80.9524ZM47.7193 41.2698H55.5066L58.0645 38.7525V31.746C59.8436 31.746 61.2903 33.1698 61.2903 34.9206V42.1999L55.7838 47.619H47.442L41.9355 42.1999V34.9206C41.9355 33.1698 43.3822 31.746 45.1613 31.746V38.7525L47.7193 41.2698ZM48.3871 50.7937H54.8387V57.1429H48.3871V50.7937ZM58.0645 49.8636L64.5161 43.5144V34.9206C64.5161 31.419 61.6227 28.5714 58.0645 28.5714H54.8387V37.438L54.1709 38.0952H49.0549L48.3871 37.438V28.5714H45.1613C41.6031 28.5714 38.7097 31.419 38.7097 34.9206V43.5144L45.1613 49.8636V57.1429H41.2676L41.166 57.2428C35.6595 53.7458 32.2581 47.7508 32.2581 41.2698C32.2581 30.7664 40.94 22.2222 51.6129 22.2222C62.2858 22.2222 70.9677 30.7664 70.9677 41.2698C70.9677 47.7035 67.7018 53.5955 62.2354 57.1429H58.0645V49.8636ZM74.1935 41.2698C74.1935 29.0155 64.0649 19.0476 51.6129 19.0476C39.1609 19.0476 29.0323 29.0155 29.0323 41.2698C29.0323 48.6018 32.7385 55.4284 38.8176 59.554L36.4951 61.8397C29.797 57.0654 25.8065 49.4241 25.8065 41.2698C25.8065 27.267 37.3842 15.873 51.6129 15.873C65.8416 15.873 77.4194 27.267 77.4194 41.2698C77.4194 49.1141 73.8163 56.3523 67.6648 61.1506C67.4805 60.0253 66.8969 59.041 66.0582 58.3256C71.1985 54.1256 74.1935 47.9415 74.1935 41.2698ZM69.3564 66.6667C70.2448 66.6667 70.9693 67.3782 70.9693 68.254C70.9693 69.1298 70.2448 69.8413 69.3564 69.8413H56.4516C55.5633 69.8413 54.8387 69.1298 54.8387 68.254C54.8387 67.3782 55.5633 66.6667 56.4516 66.6667H69.3564ZM56.4516 76.1905C55.5633 76.1905 54.8387 75.479 54.8387 74.6032C54.8387 73.7274 55.5633 73.0159 56.4516 73.0159H69.3564C70.2448 73.0159 70.9693 73.7274 70.9693 74.6032C70.9693 75.479 70.2448 76.1905 69.3564 76.1905H56.4516ZM16.129 88.8889H11.2903V63.4921H16.129V88.8889ZM37.7646 88.8889L32.9259 84.127H19.3548V66.6667H36.1517L42.6033 60.3175H62.9032C63.7916 60.3175 64.5161 61.029 64.5161 61.9048C64.5161 62.7806 63.7916 63.4921 62.9032 63.4921H46.1064L39.1822 70.3063L41.463 72.5508L45.1613 68.9112V88.8889H37.7646ZM51.6129 96.8254C49.8338 96.8254 48.3871 95.4016 48.3871 93.6508V66.6667H51.9098C51.7287 67.165 51.6129 67.6952 51.6129 68.254C51.6129 69.4778 52.098 70.5838 52.8706 71.4286C52.0965 72.2734 51.6129 73.3794 51.6129 74.6032C51.6129 75.827 52.098 76.933 52.8706 77.7778C52.0965 78.6226 51.6129 79.7286 51.6129 80.9524C51.6129 82.1762 52.098 83.2822 52.8706 84.127C52.0965 84.9718 51.6129 86.0778 51.6129 87.3016C51.6129 89.3679 52.9659 91.1141 54.8387 91.7713V93.6508C54.8387 95.4016 53.392 96.8254 51.6129 96.8254ZM69.3564 88.8889H56.4516C55.5633 88.8889 54.8387 88.1774 54.8387 87.3016C54.8387 86.4258 55.5633 85.7143 56.4516 85.7143H69.3564C70.2448 85.7143 70.9693 86.4258 70.9693 87.3016C70.9693 88.1774 70.2448 88.8889 69.3564 88.8889Z" fill="#F3B702"/>
<path d="M3.22581 14.2857H6.45161V17.4603H3.22581V14.2857Z" fill="#F3B702"/>
<path d="M3.22581 22.2222H6.45161V25.3968H3.22581V22.2222Z" fill="#F3B702"/>
<path d="M3.22581 30.1587H6.45161V33.3333H3.22581V30.1587Z" fill="#F3B702"/>
<path d="M93.5484 66.6667H96.7742V69.8413H93.5484V66.6667Z" fill="#F3B702"/>
<path d="M93.5484 74.6032H96.7742V77.7778H93.5484V74.6032Z" fill="#F3B702"/>
<path d="M93.5484 82.5397H96.7742V85.7143H93.5484V82.5397Z" fill="#F3B702"/>
</svg>
