<svg xmlns="http://www.w3.org/2000/svg" width="52.35" height="36" viewBox="0 0 52.35 36"><defs><style>.a{fill:none;stroke:#707070;opacity:0.7;}</style></defs><path class="a" d="M15.65.5c8,0,12.6-6.55,12.6-17.5s-4.6-17.5-12.6-17.5S3.05-27.95,3.05-17,7.65.5,15.65.5Zm0-5.9C11.8-5.4,9.6-9.55,9.6-17c0-7.4,2.2-11.6,6.05-11.6S21.7-24.4,21.7-17C21.7-9.55,19.5-5.4,15.65-5.4ZM32.6-.95a.949.949,0,0,0,.95.95h19.7a.983.983,0,0,0,.95-.95V-4.4a.983.983,0,0,0-.95-.95H42.45c2.65-3.35,6.45-8.05,8.6-11.1,1.95-2.8,3.35-4.85,3.35-8.1,0-5.4-4-9.95-11.15-9.95-5.95,0-9.85,4.9-9.85,4.9a.985.985,0,0,0,.05,1.3l2.4,2.4a.909.909,0,0,0,1.35,0c1.15-1.25,3.2-2.95,5.6-2.95,3.6,0,5.3,2.3,5.3,4.55,0,1.7-1,3.65-2.55,5.55C42.2-14.3,35.9-6.1,32.6-2.1Z" transform="translate(-2.55 35)"/></svg>