<svg xmlns="http://www.w3.org/2000/svg" width="52.8" height="36" viewBox="0 0 52.8 36"><defs><style>.a{fill:none;stroke:#707070;opacity:0.7;}</style></defs><path class="a" d="M15.65.5c8,0,12.6-6.55,12.6-17.5s-4.6-17.5-12.6-17.5S3.05-27.95,3.05-17,7.65.5,15.65.5Zm0-5.9C11.8-5.4,9.6-9.55,9.6-17c0-7.4,2.2-11.6,6.05-11.6S21.7-24.4,21.7-17C21.7-9.55,19.5-5.4,15.65-5.4Zm17.3,1.45C34.05-2.65,37.1.5,43.35.5c6.9,0,11.5-4.1,11.5-9.75,0-4.45-3.7-7.15-6.05-8.15v-.15a9.1,9.1,0,0,0,5.15-7.8c0-5.6-4.85-9.15-10.65-9.15-5.6,0-9.4,4.4-9.4,4.4a.892.892,0,0,0,0,1.3l2.45,2.3a.907.907,0,0,0,1.35-.05,6.473,6.473,0,0,1,5.05-2.4,4.675,4.675,0,0,1,4.85,4.6c0,2.55-2.1,4.6-6.2,4.6H38.6a.884.884,0,0,0-.95,1v3.15a.933.933,0,0,0,.95,1h2.8c4.5,0,6.9,2.35,6.9,4.95,0,2.75-2.6,4.7-5.3,4.7-3.05,0-6-2.5-6.15-2.7a.854.854,0,0,0-1.3,0L33-5.2A.982.982,0,0,0,32.95-3.95Z" transform="translate(-2.55 35)"/></svg>