<svg xmlns="http://www.w3.org/2000/svg" width="42.45" height="36" viewBox="0 0 42.45 36"><defs><style>.a{fill:none;stroke:#707070;opacity:0.7;}</style></defs><path class="a" d="M15.65.5c8,0,12.6-6.55,12.6-17.5s-4.6-17.5-12.6-17.5S3.05-27.95,3.05-17,7.65.5,15.65.5Zm0-5.9C11.8-5.4,9.6-9.55,9.6-17c0-7.4,2.2-11.6,6.05-11.6S21.7-24.4,21.7-17C21.7-9.55,19.5-5.4,15.65-5.4ZM38.35-.95A.949.949,0,0,0,39.3,0h4.3a.94.94,0,0,0,.9-.95v-32.1a.94.94,0,0,0-.9-.95H40.1l-7.2,6.05a1.034,1.034,0,0,0-.25.9l.3,2.45a.825.825,0,0,0,1,.65l4.4-.95Z" transform="translate(-2.55 35)"/></svg>