<svg xmlns="http://www.w3.org/2000/svg" width="11.844" height="13" viewBox="0 0 11.844 13">
  <defs>
    <style>
      .cls-1 {
        fill-rule: evenodd;
      }
    </style>
  </defs>
  <path id="icon-home.svg" class="cls-1" d="M41.549,467.3a0.371,0.371,0,0,1,.165.33v7.825a0.423,0.423,0,0,1-.427.427H38.081a0.423,0.423,0,0,1-.427-0.427V470.66h-3.7v4.794a0.423,0.423,0,0,1-.427.427h-3.22a0.423,0.423,0,0,1-.427-0.427v-7.825a0.392,0.392,0,0,1,.165-0.33l5.395-4.326a0.385,0.385,0,0,1,.261-0.1,0.439,0.439,0,0,1,.275.1l5.574,4.326h0Z" transform="translate(-29.875 -462.875)"/>
</svg>
